<svg width="41" height="41" viewBox="0 0 41 41" fill="none" xmlns="http://www.w3.org/2000/svg">
<path d="M17.0542 18.7032C17.391 18.4594 17.5535 18.0569 17.5535 17.5034C17.5651 17.2402 17.511 16.9808 17.3948 16.7447C17.2903 16.5551 17.1355 16.3964 16.9459 16.2841C16.7492 16.1649 16.5308 16.0859 16.3033 16.0519C16.0556 16.0055 15.804 15.9822 15.5563 15.9861H12.8353V19.0709H15.7808C16.2879 19.0748 16.7175 18.951 17.0542 18.7032ZM17.511 21.49C17.1316 21.1997 16.6246 21.0565 15.9937 21.0565H12.8276V24.6949H15.9318C16.2221 24.6949 16.4891 24.6678 16.7485 24.6136C16.9938 24.5656 17.2277 24.471 17.4374 24.3349C17.6348 24.2072 17.7935 24.033 17.9135 23.8085C18.0296 23.584 18.0877 23.2976 18.0877 22.9531C18.0877 22.268 17.8941 21.7842 17.511 21.49ZM20.6035 2.97716C11.0278 2.97716 3.26343 10.7415 3.26343 20.3173C3.26343 29.893 11.0278 37.6574 20.6035 37.6574C30.1793 37.6574 37.9436 29.893 37.9436 20.3173C37.9436 10.7415 30.1793 2.97716 20.6035 2.97716ZM23.9516 14.0818H29.3084V15.3862H23.9516V14.0818ZM20.6035 24.8381C20.353 25.3137 19.9952 25.7245 19.5585 26.0379C19.1018 26.3553 18.5947 26.5876 18.0567 26.723C17.4938 26.8739 16.9132 26.9481 16.3304 26.9437H9.92079V13.7412H16.1524C16.7833 13.7412 17.3561 13.7992 17.8787 13.9076C18.3973 14.016 18.8386 14.2018 19.2101 14.4534C19.5778 14.7049 19.8681 15.0417 20.0733 15.4597C20.2745 15.8739 20.379 16.3925 20.379 17.0079C20.379 17.6737 20.2281 18.2233 19.9262 18.6684C19.6204 19.1135 19.1792 19.4735 18.5792 19.756C19.3959 19.9883 19.9959 20.4024 20.3906 20.983C20.7932 21.5713 20.9906 22.2758 20.9906 23.1041C20.9906 23.7775 20.8629 24.3543 20.6035 24.8381ZM31.3946 22.7944H24.4896C24.4896 23.5453 24.7489 24.2652 25.1398 24.6523C25.5346 25.0355 26.0997 25.229 26.839 25.229C27.3731 25.229 27.826 25.0935 28.213 24.8265C28.5962 24.5594 28.8285 24.2768 28.9136 23.9827H31.2282C30.8566 25.1322 30.2915 25.9528 29.5252 26.4482C28.7665 26.9437 27.8376 27.1914 26.7577 27.1914C26.003 27.1914 25.3256 27.0675 24.7179 26.8314C24.1335 26.603 23.6071 26.2547 23.1736 25.8057C22.7462 25.3446 22.4158 24.8023 22.2021 24.211C21.966 23.5569 21.8498 22.868 21.8576 22.1751C21.8576 21.4591 21.9776 20.7933 22.2098 20.174C22.6549 18.9703 23.58 18.0065 24.7605 17.5072C25.3914 17.244 26.0688 17.1124 26.7538 17.1202C27.5667 17.1202 28.2711 17.275 28.8827 17.5924C29.4714 17.8955 29.9826 18.3298 30.3767 18.8619C30.7676 19.3922 31.0424 19.996 31.2166 20.6772C31.383 21.3468 31.4411 22.0513 31.3946 22.7944ZM26.6726 19.0942C26.2545 19.0942 25.9023 19.1677 25.6314 19.3109C25.3604 19.4541 25.136 19.6322 24.9656 19.8373C24.8035 20.0354 24.6836 20.2646 24.6134 20.5108C24.5515 20.7159 24.5089 20.9249 24.4934 21.1378H28.7704C28.7085 20.4682 28.4762 19.9728 28.1666 19.6244C27.8415 19.2799 27.3189 19.0942 26.6726 19.0942Z" fill="#656579"/>
<path d="M39.1823 20.3173C39.1823 30.578 30.8643 38.8959 20.6036 38.8959C10.3429 38.8959 2.0249 30.578 2.0249 20.3173C2.0249 10.0565 10.3429 1.73858 20.6036 1.73858C30.8643 1.73858 39.1823 10.0565 39.1823 20.3173ZM6.52251 20.3173C6.52251 28.094 12.8268 34.3983 20.6036 34.3983C28.3803 34.3983 34.6847 28.094 34.6847 20.3173C34.6847 12.5405 28.3803 6.23619 20.6036 6.23619C12.8268 6.23619 6.52251 12.5405 6.52251 20.3173Z" fill="#656579"/>
</svg>
