<svg width="41" height="41" viewBox="0 0 41 41" fill="none" xmlns="http://www.w3.org/2000/svg">
<path d="M20.6757 15.1578C17.8347 15.1578 15.5162 17.4763 15.5162 20.3173C15.5162 23.1582 17.8347 25.4767 20.6757 25.4767C23.5167 25.4767 25.8351 23.1582 25.8351 20.3173C25.8351 17.4763 23.5167 15.1578 20.6757 15.1578ZM36.1502 20.3173C36.1502 18.1807 36.1695 16.0635 36.0495 13.9308C35.9295 11.4537 35.3644 9.2552 33.553 7.44378C31.7377 5.62849 29.5431 5.06726 27.066 4.94727C24.9294 4.82728 22.8122 4.84664 20.6795 4.84664C18.543 4.84664 16.4258 4.82728 14.2931 4.94727C11.816 5.06726 9.61748 5.63236 7.80606 7.44378C5.99077 9.25907 5.42954 11.4537 5.30955 13.9308C5.18956 16.0674 5.20891 18.1846 5.20891 20.3173C5.20891 22.4499 5.18956 24.571 5.30955 26.7037C5.42954 29.1808 5.99464 31.3793 7.80606 33.1907C9.62135 35.006 11.816 35.5673 14.2931 35.6872C16.4297 35.8072 18.5469 35.7879 20.6795 35.7879C22.8161 35.7879 24.9333 35.8072 27.066 35.6872C29.5431 35.5673 31.7416 35.0022 33.553 33.1907C35.3683 31.3754 35.9295 29.1808 36.0495 26.7037C36.1734 24.571 36.1502 22.4538 36.1502 20.3173ZM20.6757 28.2558C16.2826 28.2558 12.7372 24.7103 12.7372 20.3173C12.7372 15.9242 16.2826 12.3787 20.6757 12.3787C25.0688 12.3787 28.6142 15.9242 28.6142 20.3173C28.6142 24.7103 25.0688 28.2558 20.6757 28.2558ZM28.9393 13.9076C27.9136 13.9076 27.0853 13.0793 27.0853 12.0536C27.0853 11.0279 27.9136 10.1996 28.9393 10.1996C29.965 10.1996 30.7933 11.0279 30.7933 12.0536C30.7936 12.2972 30.7459 12.5384 30.6528 12.7635C30.5597 12.9885 30.4232 13.1931 30.251 13.3653C30.0787 13.5375 29.8742 13.674 29.6492 13.7671C29.4241 13.8602 29.1829 13.9079 28.9393 13.9076Z" fill="#656579"/>
<path d="M39.254 20.3173C39.254 30.578 30.9361 38.8959 20.6754 38.8959C10.4146 38.8959 2.09668 30.578 2.09668 20.3173C2.09668 10.0565 10.4146 1.73858 20.6754 1.73858C30.9361 1.73858 39.254 10.0565 39.254 20.3173ZM6.59429 20.3173C6.59429 28.094 12.8986 34.3983 20.6754 34.3983C28.4521 34.3983 34.7564 28.094 34.7564 20.3173C34.7564 12.5405 28.4521 6.23619 20.6754 6.23619C12.8986 6.23619 6.59429 12.5405 6.59429 20.3173Z" fill="#656579"/>
</svg>
