<svg width="41" height="41" viewBox="0 0 41 41" fill="none" xmlns="http://www.w3.org/2000/svg">
<path d="M20.748 1.29269C10.2408 1.29269 1.72339 9.81015 1.72339 20.3173C1.72339 30.8244 10.2408 39.3418 20.748 39.3418C31.2551 39.3418 39.7725 30.8244 39.7725 20.3173C39.7725 9.81015 31.2551 1.29269 20.748 1.29269ZM16.0909 28.2025H12.2384V15.8049H16.0909V28.2025ZM14.1409 14.2829C12.9241 14.2829 12.1374 13.4209 12.1374 12.3547C12.1374 11.2667 12.9479 10.4304 14.1904 10.4304C15.433 10.4304 16.194 11.2667 16.2177 12.3547C16.2177 13.4209 15.433 14.2829 14.1409 14.2829ZM30.1612 28.2025H26.3087V21.3319C26.3087 19.7327 25.7498 18.6467 24.3567 18.6467C23.2925 18.6467 22.6603 19.3819 22.3809 20.0894C22.2779 20.341 22.2521 20.6978 22.2521 21.0525V28.2006H18.3976V19.7584C18.3976 18.2107 18.3481 16.9166 18.2966 15.8029H21.6437L21.8201 17.525H21.8974C22.4047 16.7165 23.6472 15.5235 25.7261 15.5235C28.2607 15.5235 30.1612 17.2218 30.1612 20.8721V28.2025Z" fill="#656579"/>
</svg>
