<svg width="40" height="41" viewBox="0 0 40 41" fill="none" xmlns="http://www.w3.org/2000/svg">
<path d="M19.8179 2.97716C10.2421 2.97716 2.47778 10.7415 2.47778 20.3173C2.47778 29.893 10.2421 37.6574 19.8179 37.6574C29.3936 37.6574 37.158 29.893 37.158 20.3173C37.158 10.7415 29.3936 2.97716 19.8179 2.97716ZM28.1512 16.048C28.1628 16.23 28.1628 16.4196 28.1628 16.6054C28.1628 22.2874 23.8355 28.8325 15.928 28.8325C13.4895 28.8325 11.2291 28.1242 9.3248 26.905C9.67315 26.9437 10.006 26.9591 10.3621 26.9591C12.3748 26.9591 14.2249 26.2779 15.6996 25.1245C13.8108 25.0858 12.2238 23.8472 11.682 22.1442C12.3438 22.2409 12.9399 22.2409 13.6211 22.0668C12.6486 21.8692 11.7744 21.341 11.1471 20.5719C10.5199 19.8028 10.1782 18.8403 10.1802 17.8478V17.7937C10.7492 18.1149 11.4188 18.3123 12.1193 18.3394C11.5304 17.9469 11.0474 17.4152 10.7132 16.7913C10.379 16.1674 10.2039 15.4708 10.2034 14.763C10.2034 13.9618 10.4124 13.2303 10.7879 12.5955C11.8674 13.9244 13.2144 15.0113 14.7415 15.7855C16.2686 16.5597 17.9415 17.0039 19.6515 17.0892C19.0438 14.1669 21.2268 11.802 23.851 11.802C25.0896 11.802 26.2043 12.3207 26.99 13.1567C27.9615 12.9748 28.8905 12.611 29.7188 12.1233C29.3975 13.118 28.724 13.9579 27.8299 14.4882C28.6969 14.3953 29.533 14.1553 30.3071 13.8186C29.7226 14.6779 28.9911 15.4404 28.1512 16.048Z" fill="#656579"/>
<path d="M38.3964 20.3173C38.3964 30.578 30.0784 38.8959 19.8177 38.8959C9.55697 38.8959 1.23901 30.578 1.23901 20.3173C1.23901 10.0565 9.55697 1.73858 19.8177 1.73858C30.0784 1.73858 38.3964 10.0565 38.3964 20.3173ZM5.73662 20.3173C5.73662 28.094 12.0409 34.3983 19.8177 34.3983C27.5945 34.3983 33.8988 28.094 33.8988 20.3173C33.8988 12.5405 27.5945 6.23619 19.8177 6.23619C12.0409 6.23619 5.73662 12.5405 5.73662 20.3173Z" fill="#656579"/>
</svg>
